<svg width="399" height="342" viewBox="0 0 399 342" fill="none" xmlns="http://www.w3.org/2000/svg">
<g opacity="0.23">
<path opacity="0.23" d="M76.0748 205.108C76.1973 204.415 76.3062 203.722 76.415 203.029L18.7227 260.633C19.4166 260.538 20.1105 260.415 20.8045 260.293L76.0748 205.108Z" fill="url(#paint0_linear)"/>
<path opacity="0.23" d="M65.4072 231.383L47.1198 249.656C50.6439 247.264 54.0048 244.52 57.1343 241.395C60.2639 238.271 63.026 234.915 65.4072 231.383Z" fill="url(#paint1_linear)"/>
<path opacity="0.23" d="M72.8365 217.036C73.163 216.153 73.476 215.257 73.7753 214.374L30.0843 257.997C30.9823 257.712 31.8667 257.399 32.7512 257.06L72.8365 217.036Z" fill="url(#paint2_linear)"/>
</g>
<path d="M8.16401 333.303C12.6729 333.303 16.328 329.653 16.328 325.151C16.328 320.649 12.6729 317 8.16401 317C3.65515 317 0 320.649 0 325.151C0 329.653 3.65515 333.303 8.16401 333.303Z" fill="#CFE5FF"/>
<path d="M205 324C207.761 324 210 321.761 210 319C210 316.239 207.761 314 205 314C202.239 314 200 316.239 200 319C200 321.761 202.239 324 205 324Z" fill="#CFE5FF"/>
<path d="M291 293C292.657 293 294 291.657 294 290C294 288.343 292.657 287 291 287C289.343 287 288 288.343 288 290C288 291.657 289.343 293 291 293Z" fill="#CFE5FF"/>
<path d="M76.5103 155.208C73.7073 154.461 69.3259 147.437 65.7066 147.111C62.0872 146.798 57.7058 151.051 54.0048 148.361C50.3038 145.684 49.9636 134.15 45.7319 131.84C41.5003 129.545 38.3435 132.112 36.7107 129.409C35.0915 126.692 37.2005 117.453 33.4043 114.193C29.608 110.932 26.5193 112.019 25.7573 109.166C25.009 106.313 27.2677 101.803 24.2062 97.523C21.1447 93.2571 19.9881 87.7957 24.5599 90.3362C29.1318 92.8767 33.2138 96.0965 37.8129 95.0776C42.4119 94.0587 41.5683 101.911 44.8475 103.772C48.1131 105.634 52.9707 102.482 55.624 104.153C58.2637 105.81 58.4814 114.695 60.6993 115.524C62.9172 116.366 71.7615 110.212 75.898 111.937C80.0344 113.663 74.9727 124.857 79.4085 126.528C83.8443 128.2 89.2325 130.319 89.2325 130.319L76.5103 155.208Z" fill="#B8E3C2"/>
<path d="M31.2953 100.852C31.2953 100.852 36.2889 117.29 80.9869 145.874L83.8307 141.269C83.8307 141.269 47.7185 125.591 31.2953 100.852Z" fill="#9ECDBB"/>
<path d="M28.0025 185.545C18.0288 192.188 12.3684 225.065 31.6627 225.731C44.9564 226.193 50.195 214.224 45.2013 210.502C32.656 201.155 18.0288 234.032 32.656 240.675C39.5545 243.814 46.562 238.814 54.1137 232.728C65.6658 223.422 78.4969 211.561 94.1854 222.403" stroke="#FFB800" stroke-width="2" stroke-miterlimit="10"/>
<path d="M269.82 287.872C269.82 290.481 261.126 292.6 250.39 292.6C239.668 292.6 230.96 290.481 230.96 287.872C230.96 285.264 239.654 283.144 250.39 283.144C261.126 283.158 269.82 285.264 269.82 287.872Z" fill="#CFE5FF"/>
<path d="M159.076 306.485C159.076 309.093 150.381 311.212 139.645 311.212C128.91 311.212 120.215 309.093 120.215 306.485C120.215 303.876 128.91 301.757 139.645 301.757C150.381 301.757 159.076 303.876 159.076 306.485Z" fill="#CFE5FF"/>
<path d="M308.341 277.669H87.4228C79.7078 277.669 72.0337 276.528 64.6588 274.273L30.3019 263.812H368.877L329.282 274.816C322.451 276.705 315.417 277.669 308.341 277.669Z" fill="#E5EBF4"/>
<path d="M352.277 77.9189C347.882 77.5385 341.514 77.6744 332.506 79.2231C327.526 80.079 323.172 83.0679 320.56 87.3745C315.92 95.0233 308.749 107.155 307.239 111.394C307.239 111.394 294.489 109.411 287.291 105.05L284.108 111.394C284.108 111.394 291.442 116.462 313.022 123.512C313.022 123.512 319.444 113.867 322.846 104.465C322.846 104.465 322.125 109.682 324.574 118.893C326.52 126.189 321.961 154.651 321.961 154.651L368.904 152.966L365.054 124.667L370.741 117.358C372.347 115.293 373.014 112.644 372.592 110.063C371.721 104.669 369.571 94.9554 364.632 85.9345C362.128 81.3697 357.475 78.3672 352.277 77.9189Z" fill="#D85C1C"/>
<path d="M360.577 112.562L358.849 100.58C358.849 100.58 356.536 116.312 355.529 118.187L360.577 112.562Z" fill="#B14800"/>
<path d="M342.929 127.928C340.534 128.757 334.384 130.713 334.956 131.963C335.282 132.683 339.623 130.971 340.099 131.555C340.466 132.004 338.915 134.3 336.139 135.753C333.99 136.881 332.493 136.65 332.398 137.682C332.289 138.987 338.657 138.851 340.276 138.647C341.188 138.538 343.12 138.049 344.576 136.826C346.249 135.441 346.644 134.639 347.487 133.824C349.352 132.031 351.461 130.794 351.461 130.794L348.29 125.659C348.304 125.673 344.303 127.452 342.929 127.928Z" fill="#E7D1AD"/>
<path d="M336.425 69.8897L337.418 81.3017C337.418 81.3017 343.609 86.5866 348.984 80.6225L345.991 66.833L336.425 69.8897Z" fill="#E0BD82"/>
<path d="M353.216 39.3627C356.128 42.2021 358.441 46.4544 358.441 52.4321C358.441 61.2493 348.005 73.6802 338.453 73.6802C330.03 73.6802 323.199 65.0397 323.199 54.3749C323.199 46.2099 327.254 39.3084 332.874 36.401C340.82 32.2982 349.365 35.6131 353.216 39.3627Z" fill="#E7CB9E"/>
<path d="M333.16 58.0566C333.16 58.0566 333.064 58.4099 332.928 58.9125C332.792 59.4152 332.602 60.0673 332.506 60.7058C332.479 61.0183 332.466 61.3308 332.534 61.5617C332.602 61.8063 332.738 62.0101 332.928 62.1459C333.023 62.2003 333.119 62.2682 333.2 62.3225C333.296 62.3633 333.377 62.3905 333.445 62.4176C333.581 62.472 333.677 62.5263 333.677 62.5263C333.677 62.5263 333.595 62.5399 333.432 62.5535C333.268 62.5671 333.037 62.5942 332.751 62.4856C332.602 62.4584 332.479 62.3361 332.316 62.241C332.193 62.1187 332.044 61.9693 331.976 61.7791C331.894 61.5889 331.826 61.3987 331.826 61.2085C331.799 61.0047 331.826 60.8145 331.826 60.6243C331.921 59.8635 332.275 59.2114 332.574 58.7631C332.887 58.2876 333.16 58.0566 333.16 58.0566Z" fill="#E0B695"/>
<path d="M328.778 59.9586C328.778 60.8145 327.826 61.4938 326.642 61.4938C325.458 61.4938 324.506 60.8009 324.506 59.9586C324.506 59.1163 325.458 58.4234 326.642 58.4234C327.826 58.4098 328.778 59.1027 328.778 59.9586Z" fill="#E0AB82"/>
<path d="M344.997 60.0265C344.997 60.964 343.841 61.7383 342.399 61.7383C340.97 61.7383 339.8 60.9775 339.8 60.0265C339.8 59.0756 340.956 58.3148 342.399 58.3148C343.827 58.3148 344.997 59.0756 344.997 60.0265Z" fill="#E0AB82"/>
<path d="M339.473 275.36C360.59 275.36 377.708 272.385 377.708 268.716C377.708 265.047 360.59 262.073 339.473 262.073C318.357 262.073 301.238 265.047 301.238 268.716C301.238 272.385 318.357 275.36 339.473 275.36Z" fill="#E5EBF4"/>
<path d="M366.999 256.204C366.999 256.204 369.204 256.652 368.891 259.981C368.564 263.309 368.687 267.779 368.687 267.779L367.748 268.146C367.748 268.146 367.217 264.151 366.945 264.111C366.673 264.07 364.809 268.119 362.618 269.056C360.427 269.993 354.876 271.759 353.297 270.143C351.569 268.377 355.42 266.774 357.407 265.605C359.38 264.437 366.999 256.204 366.999 256.204Z" fill="#393939"/>
<path d="M359.121 245.526C359.121 245.526 361.434 254.642 360.305 258.554C359.176 262.467 356.168 265.823 355.856 266.597C355.543 267.385 359.992 266.869 361.57 265.496C363.149 264.124 367.34 257.033 367.081 256.082C366.822 255.131 366.156 248.8 366.401 244.045L359.121 245.526Z" fill="#E7CB9E"/>
<path d="M330.397 257.168C330.397 257.168 332.52 257.916 331.758 261.163C330.996 264.41 330.52 268.866 330.52 268.866L329.54 269.097C329.54 269.097 329.554 265.075 329.282 264.994C329.01 264.912 326.724 268.757 324.424 269.382C322.125 270.007 316.287 270.958 314.94 269.151C313.471 267.168 317.498 266.094 319.607 265.211C321.744 264.328 330.397 257.168 330.397 257.168Z" fill="#393939"/>
<path d="M324.016 245.539C324.016 245.539 325.091 254.886 323.444 258.622C321.812 262.358 318.369 265.266 317.961 265.999C317.539 266.733 322.029 266.814 323.771 265.673C325.513 264.532 330.629 258.065 330.493 257.087C330.357 256.109 330.547 249.751 331.432 245.064L324.016 245.539Z" fill="#E7CB9E"/>
<path d="M321.975 154.664C321.975 154.664 318.002 194.375 317.457 207.621C316.968 219.319 322.438 255.565 322.438 255.565L331.908 254.75C331.908 254.75 333.024 219.998 335.718 208.423C337.759 199.606 343.895 173.141 343.895 173.141C343.895 173.141 347.052 198.261 348.1 206.643C349.596 218.544 357.543 255.389 357.543 255.389L368.714 254.9C368.714 254.9 365.748 217.716 365.911 205.325C366.088 192.242 368.918 152.993 368.918 152.993L321.975 154.664Z" fill="#1D2B38"/>
<path d="M321.975 154.664C321.975 154.664 318.002 194.375 317.457 207.621C316.968 219.319 322.438 255.565 322.438 255.565L331.908 254.75C331.908 254.75 333.024 219.998 335.718 208.423C337.759 199.606 343.895 173.141 343.895 173.141C343.895 173.141 338.453 166.538 336.752 154.135L321.975 154.664Z" fill="#2C3E50"/>
<path d="M359.774 53.4103C359.774 53.4103 357.679 59.8771 347.474 54.0081C337.269 48.1527 330.806 41.0881 330.806 41.0881C330.806 41.0881 327.472 49.6335 322.247 53.0707C322.247 53.0707 322.533 47.1609 323.526 44.0226C324.615 40.5718 327.717 33.4258 338.466 32.991C362.945 31.9993 359.774 53.4103 359.774 53.4103Z" fill="#424242"/>
<path d="M358.128 48.7504C358.128 48.7504 363.775 45.6529 361.584 39.2676C359.393 32.8959 350.93 29.4452 346.562 35.1376" fill="#424242"/>
<path d="M337.296 54.0081C337.296 54.7689 337.691 55.3802 338.18 55.3802C338.67 55.3802 339.065 54.7689 339.065 54.0081C339.065 53.2473 338.67 52.6359 338.18 52.6359C337.691 52.6359 337.296 53.2473 337.296 54.0081Z" fill="#424242"/>
<path d="M328.071 54.5244C328.071 55.2851 328.492 55.8965 328.996 55.8965C329.513 55.8965 329.921 55.2851 329.921 54.5244C329.921 53.7636 329.499 53.1522 328.996 53.1522C328.479 53.1522 328.071 53.7636 328.071 54.5244Z" fill="#424242"/>
<path d="M338.221 64.5234C338.221 64.5234 333.854 66.5884 330.37 64.8495C330.289 66.6835 334.792 70.2701 338.221 64.5234Z" fill="#E5F1FF"/>
<path d="M351.338 58.8038C350.182 62.3769 351.474 65.9227 354.236 66.7243C356.998 67.5258 360.182 65.2842 361.339 61.7112C362.496 58.1381 361.203 54.5923 358.441 53.7907C355.679 52.9892 352.495 55.2308 351.338 58.8038Z" fill="black"/>
<path d="M354.794 64.3468C354.794 64.3468 349.746 71.8325 339.269 69.8898" stroke="black" stroke-miterlimit="10" stroke-linecap="round"/>
<path d="M339.514 68.8708C338.956 68.7757 338.425 69.1425 338.33 69.686C338.235 70.243 338.602 70.7728 339.146 70.8679C339.704 70.963 340.235 70.5962 340.33 70.0528C340.439 69.5094 340.058 68.9659 339.514 68.8708Z" fill="black"/>
<path d="M358.767 57.8936C358.767 57.8936 361.706 31.0211 340.385 30.8581C335.514 30.8173 326.751 32.6378 324.247 41.156" stroke="black" stroke-miterlimit="10" stroke-linecap="round"/>
<path d="M317.689 106.884L317.702 106.87L214.482 49.8644C203.787 43.9547 190.806 43.9547 180.112 49.8644L76.8641 106.884L76.8777 106.897C72.333 109.37 69.2443 114.193 69.2443 119.736V263.2C69.2443 271.27 75.8027 277.819 83.8715 277.819H310.709C318.791 277.819 325.349 271.27 325.349 263.2V119.736C325.336 114.179 322.247 109.356 317.689 106.884Z" fill="#509EFF"/>
<path d="M214.278 44.3487C215.448 41.713 223.095 38.4796 223.98 34.961C224.864 31.4423 221.34 26.4563 224.565 23.2229C227.803 19.9895 239.26 21.4568 242.199 17.6528C245.138 13.8352 243.083 10.3165 246.022 9.14815C248.961 7.97978 257.779 11.4985 261.602 8.26508C265.426 5.03168 264.84 1.81187 267.779 1.51299C270.719 1.2141 274.828 4.14861 279.536 1.81187C284.244 -0.53845 289.822 -0.82375 286.584 3.27913C283.346 7.38201 279.536 10.9143 279.821 15.6013C280.107 20.2884 272.474 18.237 270.12 21.1715C267.766 24.106 270.12 29.3908 268.065 31.7411C266.011 34.0915 257.193 32.9095 256.01 34.9745C254.84 37.026 259.534 46.7126 257.18 50.5302C254.826 54.3477 244.539 47.5956 242.185 51.6985C239.831 55.8014 236.892 60.8009 236.892 60.8009L214.278 44.3487Z" fill="#B8E3C2"/>
<path d="M275.113 8.2515C275.113 8.2515 258.064 10.6018 222.809 50.2177L226.919 53.7364C226.919 53.7364 248.077 20.5737 275.113 8.2515Z" fill="#9ECDBB"/>
<path d="M296.068 241.925H98.5123V57.4453C98.5123 48.1934 106.023 40.6941 115.289 40.6941H279.291C288.557 40.6941 296.068 48.1934 296.068 57.4453V241.925Z" fill="url(#paint3_linear)"/>
<path d="M271.018 70.4196H123.576V71.5744H271.018V70.4196Z" fill="#E1E3E6"/>
<path d="M271.018 86.6817H123.576V87.8364H271.018V86.6817Z" fill="#E1E3E6"/>
<path d="M271.018 102.957H123.576V104.112H271.018V102.957Z" fill="#E1E3E6"/>
<path d="M271.018 119.219H123.576V120.374H271.018V119.219Z" fill="#E1E3E6"/>
<path d="M271.018 135.495H123.576V136.65H271.018V135.495Z" fill="#E1E3E6"/>
<path d="M271.018 151.757H123.576V152.912H271.018V151.757Z" fill="#E1E3E6"/>
<path d="M271.018 168.033H123.576V169.188H271.018V168.033Z" fill="#E1E3E6"/>
<path d="M271.018 184.295H123.576V185.45H271.018V184.295Z" fill="#E1E3E6"/>
<path d="M303.851 135.21L196.045 242.836C195.814 243.067 195.433 243.067 195.201 242.836L87.4093 135.21C82.5925 130.4 76.0613 127.697 69.2443 127.697V263.187C69.2443 271.257 75.8028 277.805 83.8851 277.805H310.709C318.791 277.805 325.349 271.257 325.349 263.187V127.697H322.029C315.199 127.697 308.668 130.4 303.851 135.21Z" fill="#0E7AFF"/>
<path d="M233.749 205.203L196.059 242.836C195.827 243.066 195.446 243.066 195.215 242.836L158.11 205.787L69.2443 258.038L69.2579 263.187C69.2579 271.257 75.8163 277.805 83.8987 277.805H310.709C318.791 277.805 325.349 271.257 325.349 263.187V258.581L233.749 205.203Z" fill="#E7E7E6"/>
<path d="M325.336 263.187V258.839L214.469 197.622C203.774 191.713 190.793 191.713 180.098 197.622L69.2307 258.839V263.187C69.2307 271.257 75.7891 277.805 83.8579 277.805H310.709C318.791 277.792 325.336 271.257 325.336 263.187Z" fill="#0E7AFF"/>
<path d="M269.031 260.483C269.031 263.201 269.467 258.758 277.848 258.758C284.216 258.758 278.42 275.36 268.31 275.93C268.31 275.93 266.147 276.65 266.582 279.395C267.018 282.139 284.937 275.781 284.937 260.918C284.937 250.96 269.031 252.984 269.031 260.483Z" fill="#FEFEFE"/>
<path d="M226.17 250.634C226.17 250.634 227.34 289.258 251.696 289.258C273.726 289.258 276.216 250.634 276.216 250.634H226.17Z" fill="#FEFEFE"/>
<path d="M233.654 254.954C231.15 254.669 229.436 254.261 228.266 253.84C229.232 263.214 233.531 289.38 251.696 289.258C252.894 289.244 254.009 289.122 255.084 288.905C238.92 285.997 234.715 264.342 233.654 254.954Z" fill="#EAF4FF"/>
<path d="M276.216 250.634C276.216 252.835 265.004 254.614 251.193 254.614C237.369 254.614 226.17 252.835 226.17 250.634C226.17 248.433 237.382 246.653 251.193 246.653C265.017 246.653 276.216 248.433 276.216 250.634Z" fill="#EAF4FF"/>
<path d="M251.193 253.758C263.532 253.758 273.535 252.359 273.535 250.634C273.535 248.908 263.532 247.509 251.193 247.509C238.854 247.509 228.851 248.908 228.851 250.634C228.851 252.359 238.854 253.758 251.193 253.758Z" fill="#FEFEFE"/>
<path d="M233.872 252.604C237.967 253.31 244.199 253.758 251.193 253.758C258.173 253.758 264.419 253.31 268.514 252.604C264.419 251.897 258.187 251.449 251.193 251.449C244.199 251.462 237.967 251.911 233.872 252.604Z" fill="#9B5E5E"/>
<path d="M97.9817 84.3449C75.0544 86.1382 52.7666 108.935 48.4397 113.595C44.0039 118.133 22.2605 141.459 21.5665 164.405C21.1583 177.801 30.4245 190.857 36.0576 195.218L61.9648 162.721C61.9648 162.721 57.7875 158.564 48.6438 156.009C48.6438 156.009 50.9025 144.339 64.9174 129.653C78.1431 115.796 90.8654 111.747 90.8654 111.747C93.8588 120.741 98.2266 124.708 98.2266 124.708L129.481 97.3057C124.882 91.8986 111.371 83.2852 97.9817 84.3449Z" fill="#FFB800"/>
<path d="M61.6654 162.449L57.0391 158.985C53.9912 156.607 45.7864 162.014 38.7245 171.062C31.6627 180.11 28.397 189.362 31.4449 191.74L36.0712 195.204L61.6654 162.449Z" fill="#FFDC91"/>
<path d="M54.3858 183.126C47.324 192.175 39.1191 197.582 36.0712 195.204C33.0233 192.827 36.2889 183.575 43.3508 174.527C50.4127 165.479 58.6175 160.072 61.6654 162.449C64.7133 164.827 61.4613 174.078 54.3858 183.126Z" fill="#FFB800"/>
<path d="M36.0712 195.204C36.0712 195.204 35.9351 195.082 35.6902 194.851C35.5405 194.756 35.4453 194.566 35.3092 194.348C35.146 194.131 35.0507 193.859 34.9691 193.547C34.765 192.922 34.7241 192.12 34.7378 191.224C34.7922 190.327 34.9419 189.308 35.2412 188.248C35.5269 187.189 35.9079 186.047 36.3978 184.879C36.874 183.711 37.4319 182.502 38.0986 181.292C38.7517 180.083 39.4729 178.861 40.2757 177.665C41.0785 176.456 41.9221 175.288 42.8337 174.106C43.7318 172.978 44.6706 171.864 45.6503 170.791C46.63 169.731 47.6369 168.726 48.6438 167.802C49.6507 166.864 50.6848 166.022 51.7053 165.288C52.7122 164.528 53.7327 163.889 54.6988 163.346C55.6512 162.789 56.6037 162.408 57.4609 162.137C58.3318 161.892 59.121 161.743 59.7741 161.797C60.1006 161.811 60.3864 161.838 60.6313 161.933C60.8762 162.014 61.0803 162.055 61.2164 162.177C61.5021 162.368 61.6518 162.463 61.6518 162.463C61.6518 162.463 61.4885 162.381 61.1756 162.245C61.0395 162.15 60.8218 162.137 60.5905 162.096C60.3592 162.041 60.087 162.041 59.7741 162.069C59.1618 162.082 58.427 162.313 57.6242 162.626C56.835 162.979 55.9778 163.441 55.0798 164.025C54.1817 164.609 53.2429 165.288 52.304 166.09C51.3515 166.864 50.4127 167.761 49.4466 168.698C48.4805 169.636 47.5553 170.655 46.6028 171.701C45.6775 172.747 44.7659 173.847 43.8678 175.002C42.997 176.116 42.1398 177.285 41.3506 178.439C40.575 179.608 39.7994 180.763 39.1327 181.931C38.466 183.099 37.8265 184.227 37.2958 185.327C36.7515 186.428 36.3161 187.501 35.9624 188.506C35.6222 189.512 35.3773 190.463 35.2276 191.319C35.1187 192.175 35.0779 192.935 35.214 193.533C35.2684 193.846 35.3228 194.104 35.4453 194.307C35.5405 194.525 35.6086 194.729 35.7446 194.851C35.9624 195.068 36.0712 195.204 36.0712 195.204Z" fill="#2C3E50"/>
<path d="M129.644 97.3328L125.753 93.0669C123.208 90.1732 114.133 93.95 105.506 101.531C96.8795 109.098 91.9403 117.589 94.4983 120.483L98.3898 124.749L129.644 97.3328Z" fill="#FFDC91"/>
<path d="M118.637 116.298C110.01 123.866 100.934 127.656 98.3899 124.762C95.8454 121.869 100.771 113.378 109.398 105.81C118.024 98.2431 127.1 94.4527 129.644 97.3464C132.189 100.24 127.263 108.731 118.637 116.298Z" fill="#FFB800"/>
<path d="M98.3899 124.749C98.3899 124.749 98.281 124.599 98.0769 124.328C97.9544 124.205 97.8864 124.002 97.8048 123.757C97.6823 123.526 97.6415 123.227 97.6143 122.901C97.519 122.249 97.6279 121.461 97.8184 120.578C98.0497 119.708 98.3762 118.73 98.8661 117.752C99.3559 116.76 99.9274 115.714 100.635 114.655C101.315 113.595 102.104 112.508 102.975 111.448C103.846 110.389 104.785 109.315 105.792 108.283C106.799 107.25 107.874 106.245 108.962 105.267C110.078 104.316 111.194 103.406 112.364 102.523C113.52 101.653 114.704 100.865 115.874 100.145C117.045 99.425 118.215 98.7729 119.358 98.2431C120.487 97.6861 121.603 97.2513 122.651 96.8981C123.698 96.5313 124.705 96.3275 125.603 96.2188C126.501 96.1509 127.304 96.1373 127.944 96.3139C128.27 96.3818 128.542 96.4634 128.76 96.6128C128.978 96.7351 129.182 96.8166 129.291 96.966C129.536 97.2106 129.672 97.3328 129.672 97.3328C129.672 97.3328 129.522 97.2242 129.25 97.0204C129.127 96.8981 128.923 96.8438 128.692 96.7622C128.474 96.6536 128.202 96.6128 127.889 96.5856C127.277 96.4905 126.515 96.572 125.685 96.7351C124.841 96.9389 123.916 97.2242 122.923 97.6317C121.929 98.0393 120.882 98.5284 119.82 99.1397C118.745 99.7239 117.657 100.43 116.528 101.164C115.412 101.898 114.296 102.74 113.167 103.582C112.065 104.438 110.949 105.362 109.874 106.299C108.799 107.25 107.751 108.215 106.744 109.207C105.765 110.212 104.785 111.204 103.914 112.223C103.043 113.242 102.2 114.233 101.479 115.225C100.73 116.203 100.104 117.182 99.5736 118.105C99.043 119.029 98.6348 119.912 98.3218 120.727C98.0633 121.543 97.8728 122.29 97.9 122.901C97.9 123.214 97.9 123.485 97.9817 123.716C98.0361 123.947 98.0633 124.151 98.1722 124.3C98.2946 124.599 98.3899 124.749 98.3899 124.749Z" fill="#2C3E50"/>
<path d="M24.9001 152.776C24.9001 152.776 40.3165 110.063 83.4905 89.8471C83.4905 89.8471 48.984 105.634 24.9001 152.776Z" fill="#FFDC90"/>
<path d="M90.6204 110.402C90.6204 110.402 78.32 111.842 60.3592 128.132C47.6369 139.679 41.6636 155.846 41.6636 155.846C43.2692 155.425 45.2558 155.507 46.6981 155.67C60.3592 120.836 90.6885 110.864 90.6204 110.402C90.3347 108.704 90.6204 110.402 90.6204 110.402Z" fill="#FFDC90"/>
<path d="M71.0812 53.356C71.2853 54.3749 71.4894 55.1765 71.7071 55.7742C71.9248 56.372 72.1697 56.8203 72.4419 57.092C72.714 57.3638 72.9997 57.5132 73.2991 57.5268C73.5984 57.5404 73.9386 57.4453 74.2924 57.2551C74.9047 56.929 75.3401 56.372 75.5986 55.5569C75.8571 54.7553 75.9524 53.7907 75.8843 52.6767C75.8163 51.5627 75.5714 50.3535 75.1768 49.0221C74.7686 47.7043 74.2107 46.3458 73.476 44.9736C72.6187 43.3705 71.6527 42.0663 70.5641 41.0473C69.4756 40.042 68.2918 39.322 67.0264 38.9008C65.761 38.4796 64.4139 38.371 62.9852 38.5747C61.5565 38.7649 60.087 39.2676 58.5767 40.0692C56.5357 41.156 54.8892 42.5825 53.6238 44.3623C52.372 46.142 51.5284 48.1255 51.1066 50.3264C50.6848 52.5137 50.6712 54.8368 51.0658 57.2822C51.4604 59.7277 52.304 62.1459 53.5694 64.5506C54.6579 66.602 55.8961 68.2731 57.2704 69.5501C58.6447 70.8272 60.1278 71.7238 61.6926 72.2537C63.2574 72.7835 64.9038 72.9465 66.6046 72.7292C68.319 72.5254 70.0471 71.9548 71.816 71.0174C72.9589 70.4196 73.9658 69.7947 74.8366 69.1833C75.7211 68.5584 76.4694 67.9606 77.1226 67.3764C77.7621 66.7922 78.2927 66.2488 78.7145 65.7461C79.1363 65.2299 79.4493 64.7951 79.6534 64.4283C79.98 63.98 80.2793 63.6539 80.5787 63.4637C80.878 63.2735 81.1501 63.1513 81.4223 63.1377C81.6944 63.1105 81.9393 63.1649 82.1842 63.2871C82.4156 63.4094 82.6333 63.5588 82.8237 63.7355L84.3477 65.3521C83.8443 66.276 83.2456 67.1998 82.5652 68.1236C81.8849 69.0475 81.1093 69.9441 80.2249 70.8272C79.3404 71.7103 78.3608 72.5526 77.2586 73.3677C76.1565 74.1828 74.9455 74.9301 73.6256 75.6365C71.1628 76.9407 68.7272 77.7151 66.3189 77.9733C63.9105 78.2314 61.6245 78.0004 59.4611 77.2804C57.284 76.5603 55.2838 75.3784 53.4333 73.7209C51.5828 72.0635 49.9908 69.9713 48.6438 67.4443C47.6233 65.5152 46.8613 63.5181 46.3579 61.4531C45.868 59.388 45.6095 57.3366 45.6231 55.2852C45.6231 53.2337 45.868 51.2366 46.3715 49.2667C46.8613 47.2968 47.5825 45.4491 48.5349 43.7373C49.4874 42.0119 50.6576 40.4496 52.0455 39.0367C53.4469 37.6237 55.0389 36.4282 56.8622 35.4772C58.7944 34.4583 60.7945 33.8333 62.8491 33.616C64.9038 33.3986 66.8903 33.5752 68.8225 34.1594C70.7546 34.7436 72.5371 35.7082 74.1971 37.0803C75.8571 38.4525 77.2586 40.2186 78.4016 42.3787C79.4357 44.3215 80.1296 46.305 80.4698 48.3157C80.8236 50.3264 80.8372 52.2284 80.5242 54.0217C80.2113 55.815 79.599 57.4317 78.6601 58.8718C77.7212 60.3119 76.4966 61.4395 74.9591 62.2546C74.5237 62.4856 74.0611 62.6622 73.5848 62.7844C73.1086 62.9067 72.6324 62.9475 72.1561 62.8931C71.6799 62.8388 71.2173 62.7165 70.7546 62.4991C70.3056 62.2818 69.8702 61.9557 69.4484 61.5074C69.013 63.0562 68.4007 64.306 67.6387 65.2706C66.8631 66.2352 65.9379 66.996 64.8629 67.5666C64.0329 68.0014 63.2301 68.2323 62.4682 68.2731C61.6926 68.3002 60.9714 68.1644 60.2911 67.8655C59.6108 67.5666 58.9849 67.1183 58.4134 66.5205C57.8419 65.9227 57.3248 65.2163 56.8894 64.3876C56.386 63.4366 55.9914 62.3905 55.7056 61.2493C55.4199 60.1081 55.2838 58.9397 55.2702 57.7577C55.2702 56.5622 55.4063 55.3531 55.7056 54.1304C55.9914 52.9077 56.4676 51.7257 57.1207 50.5845C57.7739 49.4433 58.6175 48.37 59.6516 47.3647C60.6857 46.3593 61.9375 45.4627 63.407 44.6883C64.0601 44.3351 64.6588 44.0498 65.2031 43.8324C65.7474 43.6015 66.2644 43.4248 66.7543 43.2754C67.2441 43.1395 67.7203 43.0309 68.1694 42.9629C68.6184 42.895 69.0946 42.8407 69.6117 42.8135L71.0812 53.356ZM64.9718 49.3074C64.618 49.4297 64.2779 49.5792 63.9513 49.7558C63.2029 50.1498 62.577 50.7611 62.0736 51.5763C61.5701 52.3914 61.2164 53.3152 61.0259 54.3341C60.8354 55.3531 60.7945 56.4399 60.9442 57.5675C61.0803 58.6952 61.4205 59.7684 61.9647 60.7873C62.7267 62.2274 63.5839 62.6758 64.5636 62.1731C64.8629 62.0101 65.1351 61.8063 65.38 61.5346C65.6249 61.2629 65.829 60.9232 65.9651 60.5021C66.1148 60.0809 66.1964 59.5918 66.2236 59.0076C66.2508 58.4234 66.1828 57.7442 66.0467 56.9562L64.9718 49.3074Z" fill="#547EFD"/>
<path d="M140.489 27.8692C143.149 27.8692 145.306 25.716 145.306 23.0599C145.306 20.4038 143.149 18.2505 140.489 18.2505C137.829 18.2505 135.672 20.4038 135.672 23.0599C135.672 25.716 137.829 27.8692 140.489 27.8692Z" fill="#0E7AFF"/>
<path d="M261.817 323.619C264.477 323.619 266.634 321.465 266.634 318.809C266.634 316.153 264.477 314 261.817 314C259.157 314 257 316.153 257 318.809C257 321.465 259.157 323.619 261.817 323.619Z" fill="#0E7AFF"/>
<path d="M91 298C92.6568 298 94 296.657 94 295C94 293.343 92.6568 292 91 292C89.3431 292 88 293.343 88 295C88 296.657 89.3431 298 91 298Z" fill="#0E7AFF"/>
<path d="M118 342C121.314 342 124 339.314 124 336C124 332.686 121.314 330 118 330C114.686 330 112 332.686 112 336C112 339.314 114.686 342 118 342Z" fill="#0E7AFF"/>
<path d="M37.0781 259.138C38.4082 259.138 39.4865 258.062 39.4865 256.734C39.4865 255.406 38.4082 254.329 37.0781 254.329C35.748 254.329 34.6697 255.406 34.6697 256.734C34.6697 258.062 35.748 259.138 37.0781 259.138Z" fill="#0E7AFF"/>
<path d="M398.839 24.7445C398.839 28.4127 395.859 31.3879 392.185 31.3879C388.512 31.3879 385.532 28.4127 385.532 24.7445C385.532 21.0764 388.512 18.1011 392.185 18.1011C395.859 18.1147 398.839 21.0764 398.839 24.7445Z" fill="#C3F0CE"/>
<path d="M141.414 307.68C158.773 307.68 172.846 293.629 172.846 276.297C172.846 258.965 158.773 244.914 141.414 244.914C124.055 244.914 109.983 258.965 109.983 276.297C109.983 293.629 124.055 307.68 141.414 307.68Z" fill="#226DC9"/>
<path d="M143.874 267.456C146.712 267.456 149 265.113 149 262.228C149 259.334 146.702 257 143.874 257C141.037 257 138.749 259.344 138.749 262.228C138.749 265.113 141.047 267.456 143.874 267.456ZM141.94 291.995C140.143 290.323 148.568 275.98 147.468 271.313C146.663 267.907 133.24 270.141 133.103 271.142C133.103 271.142 136.972 270.642 137.659 272.474C138.346 274.307 133.103 285.315 132.131 289.491C131.169 293.658 135.725 295 138.759 295C142.353 295 148.156 292.496 148.018 291.334C147.881 290.162 143.737 293.668 141.94 291.995Z" fill="#F7FBFC"/>
<path d="M319.961 27.5024V26.8231C319.961 21.7557 315.852 17.6528 310.777 17.6528H300.708C295.632 17.6528 291.523 21.7557 291.523 26.8231V27.5024C291.523 32.5699 295.632 36.6727 300.708 36.6727H310.777C310.899 36.6727 311.008 36.6592 311.13 36.6592C312.423 38.6698 314.886 41.0337 319.349 41.3055C319.349 41.3055 315.879 39.6208 315.267 35.5044C318.07 33.9284 319.961 30.9396 319.961 27.5024Z" fill="#4CBBB9"/>
<path d="M301.796 27.2307C301.796 28.0866 301.102 28.7659 300.259 28.7659C299.415 28.7659 298.721 28.073 298.721 27.2307C298.721 26.3884 299.415 25.6955 300.259 25.6955C301.116 25.6955 301.796 26.3748 301.796 27.2307Z" fill="#FEFEFE"/>
<path d="M307.402 27.2307C307.402 28.0866 306.708 28.7659 305.865 28.7659C305.007 28.7659 304.327 28.073 304.327 27.2307C304.327 26.3884 305.021 25.6955 305.865 25.6955C306.708 25.6955 307.402 26.3748 307.402 27.2307Z" fill="#FEFEFE"/>
<path d="M312.994 27.2307C312.994 28.0866 312.301 28.7659 311.457 28.7659C310.6 28.7659 309.919 28.073 309.919 27.2307C309.919 26.3884 310.613 25.6955 311.457 25.6955C312.314 25.6955 312.994 26.3748 312.994 27.2307Z" fill="#FEFEFE"/>
<defs>
<linearGradient id="paint0_linear" x1="18.7263" y1="231.838" x2="76.4145" y2="231.838" gradientUnits="userSpaceOnUse">
<stop stop-color="#BB7AD5"/>
<stop offset="1" stop-color="#FBFBFB"/>
</linearGradient>
<linearGradient id="paint1_linear" x1="47.119" y1="240.52" x2="65.413" y2="240.52" gradientUnits="userSpaceOnUse">
<stop stop-color="#BB7AD5"/>
<stop offset="1" stop-color="#FBFBFB"/>
</linearGradient>
<linearGradient id="paint2_linear" x1="30.0731" y1="236.179" x2="73.7635" y2="236.179" gradientUnits="userSpaceOnUse">
<stop stop-color="#BB7AD5"/>
<stop offset="1" stop-color="#FBFBFB"/>
</linearGradient>
<linearGradient id="paint3_linear" x1="197.289" y1="241.93" x2="197.289" y2="40.6895" gradientUnits="userSpaceOnUse">
<stop stop-color="#CAC7C2"/>
<stop offset="0.2162" stop-color="#DEDCD9"/>
<stop offset="0.4682" stop-color="#EEEDEC"/>
<stop offset="0.7268" stop-color="#F8F8F7"/>
<stop offset="1" stop-color="#E9E4DB"/>
</linearGradient>
</defs>
</svg>
